<svg xmlns="http://www.w3.org/2000/svg" version="1.1" xmlns:xlink="http://www.w3.org/1999/xlink" xmlns:svgjs="http://svgjs.dev/svgjs" width="1000" height="1000" viewBox="0 0 1000 1000"><rect width="1000" height="1000" fill="#8abcd7"></rect><g transform="matrix(0.7,0,0,0.7,149.57575757575756,244.9571113387315)"><svg viewBox="0 0 396 261" data-background-color="#8abcd7" preserveAspectRatio="xMidYMid meet" height="659" width="1000" xmlns="http://www.w3.org/2000/svg" xmlns:xlink="http://www.w3.org/1999/xlink"><g id="tight-bounds" transform="matrix(1,0,0,1,0.2400000000000091,13.801309214374783)"><svg viewBox="0 0 395.52 247.2" height="247.2" width="395.52"><g><svg></svg></g><g><svg viewBox="0 0 395.52 247.2" height="247.2" width="395.52"><g transform="matrix(1,0,0,1,39.55199999999999,72.94460036948547)"><svg viewBox="0 0 316.416 101.31079926102903" height="101.31079926102903" width="316.416"><g><svg viewBox="0 0 316.416 101.31079926102903" height="101.31079926102903" width="316.416"><g><svg viewBox="0 0 316.416 101.31079926102903" height="101.31079926102903" width="316.416"><g><svg viewBox="0 0 316.416 101.31079926102903" height="101.31079926102903" width="316.416"><g><svg viewBox="0 0 316.416 101.31079926102903" height="101.31079926102903" width="316.416"><g><svg viewBox="0 0 316.416 62.55673469387755" height="62.55673469387755" width="316.416"><g transform="matrix(1,0,0,1,0,0)"><svg width="316.416" viewBox="1 -37.79999923706055 195.97999572753906 38.75" height="62.55673469387755" data-palette-color="#ffffff"><path d="M7.25-0.05L3.15 0.1Q2.1 0.1 2.1-0.7L2.1-0.7Q2.1-1.35 3.6-1.4L3.6-1.4Q4.15-1.45 4.85-2.23 5.55-3 5.85-4.3 6.15-5.6 6.5-13.2 6.85-20.8 6.85-25.13 6.85-29.45 5.88-31.35 4.9-33.25 1.65-34L1.65-34Q1-34.15 1-34.75L1-34.75Q1-35.5 1.9-35.5L1.9-35.5 4.55-35.3 8.3-35.4Q9.25-35.4 9.5-34.7L9.5-34.7Q10.1-33.4 11.65-30.03 13.2-26.65 14.13-24.65 15.05-22.65 16.5-19.55 17.95-16.45 18.85-14.53 19.75-12.6 20.73-10.65 21.7-8.7 22.23-7.78 22.75-6.85 22.9-6.85 23.05-6.85 23.23-7.03 23.4-7.2 23.58-7.5 23.75-7.8 23.88-8.1 24-8.4 24.23-8.88 24.45-9.35 24.55-9.6L24.55-9.6 31-22.9Q33.65-28.3 34.55-30.45L34.55-30.45 35.7-32.95Q35.85-33.35 35.93-33.58 36-33.8 36.05-33.93 36.1-34.05 36.15-34.15 36.2-34.25 36.33-34.6 36.45-34.95 36.6-35.1L36.6-35.1Q37-35.5 38.05-35.5L38.05-35.5 42.35-35.4Q43.2-35.4 43.2-34.75L43.2-34.75Q43.2-34.25 42.88-34.02 42.55-33.8 41.43-33.65 40.3-33.5 39.8-32.4 39.3-31.3 39.3-26.38 39.3-21.45 39.6-15.98 39.9-10.5 39.9-9.1L39.9-9.1Q39.9-4.1 40.7-2.73 41.5-1.35 44.05-1.35L44.05-1.35Q44.4-1.35 44.68-1.1 44.95-0.85 44.95-0.65L44.95-0.65Q44.95 0.15 44.4 0.15L44.4 0.15 43.85 0.15 38.75-0.05Q38.75-0.05 33.55 0.2L33.55 0.2Q32.65 0.2 32.65-0.5L32.65-0.5Q32.65-1.25 34-1.4L34-1.4Q34.5-1.45 35.08-2.02 35.65-2.6 35.88-3.68 36.1-4.75 36.1-6.65 36.1-8.55 36.02-10.8 35.95-13.05 35.85-15.18 35.75-17.3 35.65-19.18 35.55-21.05 35.5-22.25L35.5-22.25 35.4-23.45Q35.4-25.6 34.95-25.6L34.95-25.6Q34.8-25.6 34.68-25.45 34.55-25.3 34.45-25.2 34.35-25.1 34.25-24.88 34.15-24.65 34.05-24.5 33.95-24.35 33.8-24.08 33.65-23.8 33.55-23.6L33.55-23.6 33.3-23.05Q33.1-22.7 33-22.45L33-22.45 26.05-8.4Q24.85-5.95 23.73-3.6 22.6-1.25 22.4-0.93 22.2-0.6 21.83-0.6 21.45-0.6 21.15-1.03 20.85-1.45 20.25-2.9 19.65-4.35 19.2-5.3L19.2-5.3Q10.05-23.9 9.85-24.18 9.65-24.45 9.5-24.45L9.5-24.45Q9.1-24.45 9.1-22.45L9.1-22.45 8.65-9.25 8.65-7Q8.65-2.9 10.3-1.95L10.3-1.95Q11.15-1.45 11.95-1.4L11.95-1.4Q13.2-1.25 13.2-0.73 13.2-0.2 13.05-0.03 12.9 0.15 12.45 0.15L12.45 0.15 7.25-0.05ZM57.7 0.95Q53.3 0.95 50.22-1.75 47.15-4.45 47.15-9.58 47.15-14.7 49.97-18.15 52.8-21.6 57.3-21.6L57.3-21.6Q59.4-21.6 61.12-20.85 62.85-20.1 63.8-19.03 64.75-17.95 65.4-16.75L65.4-16.75Q66.5-14.7 66.5-13.65L66.5-13.65Q66.5-12.75 64.45-12.75L64.45-12.75 51.6-12.75Q51.2-12.75 51.12-12.68 51.05-12.6 51.05-12.2L51.05-12.2Q51.05-7.5 53.57-4.8 56.1-2.1 59.5-2.1L59.5-2.1Q61.6-2.1 63.77-3.23 65.95-4.35 66.05-4.35L66.05-4.35Q66.55-4.35 66.55-3.9L66.55-3.9Q66.55-3.3 65.45-2.27 64.35-1.25 63.35-0.6L63.35-0.6Q60.95 0.95 57.7 0.95L57.7 0.95ZM52-13.95L52-13.95 60.8-14.25Q61.5-14.25 61.67-14.38 61.85-14.5 61.85-14.85L61.85-14.85Q61.85-16.35 60.45-18.35 59.05-20.35 56.55-20.35 54.05-20.35 52.7-18.38 51.35-16.4 51.35-14.65L51.35-14.65Q51.35-13.95 52-13.95ZM81 0.95Q76.59 0.95 73.52-1.75 70.45-4.45 70.45-9.58 70.45-14.7 73.27-18.15 76.09-21.6 80.59-21.6L80.59-21.6Q82.7-21.6 84.42-20.85 86.15-20.1 87.09-19.03 88.05-17.95 88.7-16.75L88.7-16.75Q89.8-14.7 89.8-13.65L89.8-13.65Q89.8-12.75 87.75-12.75L87.75-12.75 74.9-12.75Q74.5-12.75 74.42-12.68 74.34-12.6 74.34-12.2L74.34-12.2Q74.34-7.5 76.87-4.8 79.4-2.1 82.8-2.1L82.8-2.1Q84.9-2.1 87.07-3.23 89.25-4.35 89.34-4.35L89.34-4.35Q89.84-4.35 89.84-3.9L89.84-3.9Q89.84-3.3 88.75-2.27 87.65-1.25 86.65-0.6L86.65-0.6Q84.25 0.95 81 0.95L81 0.95ZM75.3-13.95L75.3-13.95 84.09-14.25Q84.8-14.25 84.97-14.38 85.15-14.5 85.15-14.85L85.15-14.85Q85.15-16.35 83.75-18.35 82.34-20.35 79.84-20.35 77.34-20.35 76-18.38 74.65-16.4 74.65-14.65L74.65-14.65Q74.65-13.95 75.3-13.95ZM94.69-18.55L94.69-18.55 93.74-18.5Q92.89-18.5 92.89-19.2L92.89-19.2Q92.89-19.7 93.34-20.05L93.34-20.05Q95.24-21.3 97.14-23.8L97.14-23.8Q97.94-24.95 98.42-25.48 98.89-26 99.39-26 99.89-26 99.89-24.85L99.89-24.85Q99.89-24.85 99.69-22L99.69-22Q99.69-21.3 99.97-21.15 100.24-21 101.74-21L101.74-21 103.49-21Q105.74-21 106.24-21.25L106.24-21.25Q107.14-21.7 107.34-21.7L107.34-21.7Q107.84-21.7 107.84-21.15L107.84-21.15Q107.84-20.75 107.19-19.58 106.54-18.4 106.24-18.4L106.24-18.4Q103.99-18.4 103.09-18.5 102.19-18.6 101.89-18.63 101.59-18.65 101.37-18.68 101.14-18.7 101.04-18.7L101.04-18.7 100.94-18.75Q99.99-18.75 99.72-18.45 99.44-18.15 99.44-17.1L99.44-17.1 99.24-7.8Q99.24-4.55 100.07-3.28 100.89-2 103.54-2L103.54-2Q104.59-2 105.87-2.48 107.14-2.95 107.24-2.95L107.24-2.95Q107.74-2.95 107.74-2.3 107.74-1.65 106.02-0.58 104.29 0.5 102.29 0.5L102.29 0.5Q95.54 0.5 95.54-5.35L95.54-5.35 95.54-6.1 95.74-17.75Q95.74-18.25 95.54-18.4 95.34-18.55 94.69-18.55ZM125.04-20.05L125.04-20.05 125.24-17.05Q125.24-16.2 125.04-15.9 124.84-15.6 124.47-15.6 124.09-15.6 123.67-16.32 123.24-17.05 122.72-17.9 122.19-18.75 121.02-19.48 119.84-20.2 118.34-20.2 116.84-20.2 115.89-19.48 114.94-18.75 114.94-17.9 114.94-17.05 115.09-16.53 115.24-16 115.62-15.6 115.99-15.2 116.27-14.93 116.54-14.65 117.19-14.35 117.84-14.05 118.17-13.93 118.49-13.8 119.24-13.5L119.24-13.5Q123.79-11.9 125.09-10.38 126.39-8.85 126.39-6 126.39-3.15 123.74-0.75L123.74-0.75Q121.94 0.8 118.79 0.8L118.79 0.8Q116.64 0.8 113.99-0.25L113.99-0.25Q113.24-0.55 113.12-0.58 112.99-0.6 112.72-0.7 112.44-0.8 112.32-0.83 112.19-0.85 111.99-0.95 111.79-1.05 111.72-1.13 111.64-1.2 111.54-1.35L111.54-1.35Q111.39-1.6 111.39-2.15L111.39-2.15 111.39-6.5Q111.39-7.05 111.62-7.43 111.84-7.8 112.24-7.8 112.64-7.8 112.82-7.58 112.99-7.35 113.14-6.65 113.29-5.95 113.44-5.65L113.44-5.65Q115.29-1.05 118.64-1.05L118.64-1.05Q120.19-1.05 121.59-1.88 122.99-2.7 122.99-4.48 122.99-6.25 121.84-7.35 120.69-8.45 119.04-9.08 117.39-9.7 115.74-10.38 114.09-11.05 112.94-12.38 111.79-13.7 111.79-15.7L111.79-15.7Q111.79-18.5 114.04-20.2 116.29-21.9 118.99-21.9 121.69-21.9 123.09-21.48 124.49-21.05 124.77-20.7 125.04-20.35 125.04-20.05ZM140.79 0.95Q136.39 0.95 133.31-1.75 130.24-4.45 130.24-9.58 130.24-14.7 133.06-18.15 135.89-21.6 140.39-21.6L140.39-21.6Q142.49-21.6 144.21-20.85 145.94-20.1 146.89-19.03 147.84-17.95 148.49-16.75L148.49-16.75Q149.59-14.7 149.59-13.65L149.59-13.65Q149.59-12.75 147.54-12.75L147.54-12.75 134.69-12.75Q134.29-12.75 134.21-12.68 134.14-12.6 134.14-12.2L134.14-12.2Q134.14-7.5 136.66-4.8 139.19-2.1 142.59-2.1L142.59-2.1Q144.69-2.1 146.86-3.23 149.04-4.35 149.14-4.35L149.14-4.35Q149.64-4.35 149.64-3.9L149.64-3.9Q149.64-3.3 148.54-2.27 147.44-1.25 146.44-0.6L146.44-0.6Q144.04 0.95 140.79 0.95L140.79 0.95ZM135.09-13.95L135.09-13.95 143.89-14.25Q144.59-14.25 144.76-14.38 144.94-14.5 144.94-14.85L144.94-14.85Q144.94-16.35 143.54-18.35 142.14-20.35 139.64-20.35 137.14-20.35 135.79-18.38 134.44-16.4 134.44-14.65L134.44-14.65Q134.44-13.95 135.09-13.95ZM155.89-5.9L155.89-9.6 156.09-30.85Q156.09-32 155.71-32.93 155.34-33.85 154.89-34.05 154.44-34.25 152.89-34.25L152.89-34.25Q152.34-34.25 152.34-34.6 152.34-34.95 152.41-35.1 152.49-35.25 152.74-35.38 152.99-35.5 153.34-35.6L153.34-35.6Q154.79-35.9 156.34-36.65L156.34-36.65Q158.79-37.8 159.54-37.8L159.54-37.8Q160.14-37.8 160.14-36.85L160.14-36.85Q160.14-36.65 160.04-35.7L160.04-35.7Q159.74-32.75 159.74-29.25L159.74-29.25 159.74-26.45 159.64-19.8 159.64-4.9Q159.64-3.85 159.81-3.18 159.99-2.5 160.96-1.88 161.94-1.25 163.69-1.25L163.69-1.25Q163.94-1.25 164.14-1 164.34-0.75 164.34-0.5L164.34-0.5Q164.34 0.2 162.79 0.2L162.79 0.2 157.74-0.15Q156.44-0.15 155.26 0.05 154.09 0.25 153.71 0.25 153.34 0.25 153.11 0.08 152.89-0.1 152.89-0.38 152.89-0.65 153.11-0.83 153.34-1 153.84-1.1L153.84-1.1Q155.34-1.5 155.64-2.33 155.94-3.15 155.94-4.6L155.94-4.6 155.89-5.9ZM169.83-5.9L169.83-9.6 170.03-30.85Q170.03-32 169.66-32.93 169.28-33.85 168.83-34.05 168.38-34.25 166.83-34.25L166.83-34.25Q166.28-34.25 166.28-34.6 166.28-34.95 166.36-35.1 166.43-35.25 166.68-35.38 166.93-35.5 167.28-35.6L167.28-35.6Q168.73-35.9 170.28-36.65L170.28-36.65Q172.73-37.8 173.48-37.8L173.48-37.8Q174.08-37.8 174.08-36.85L174.08-36.85Q174.08-36.65 173.98-35.7L173.98-35.7Q173.68-32.75 173.68-29.25L173.68-29.25 173.68-26.45 173.58-19.8 173.58-4.9Q173.58-3.85 173.76-3.18 173.93-2.5 174.91-1.88 175.88-1.25 177.63-1.25L177.63-1.25Q177.88-1.25 178.08-1 178.28-0.75 178.28-0.5L178.28-0.5Q178.28 0.2 176.73 0.2L176.73 0.2 171.68-0.15Q170.38-0.15 169.21 0.05 168.03 0.25 167.66 0.25 167.28 0.25 167.06 0.08 166.83-0.1 166.83-0.38 166.83-0.65 167.06-0.83 167.28-1 167.78-1.1L167.78-1.1Q169.28-1.5 169.58-2.33 169.88-3.15 169.88-4.6L169.88-4.6 169.83-5.9ZM195.63-20.05L195.63-20.05 195.83-17.05Q195.83-16.2 195.63-15.9 195.43-15.6 195.06-15.6 194.68-15.6 194.26-16.32 193.83-17.05 193.31-17.9 192.78-18.75 191.61-19.48 190.43-20.2 188.93-20.2 187.43-20.2 186.48-19.48 185.53-18.75 185.53-17.9 185.53-17.05 185.68-16.53 185.83-16 186.21-15.6 186.58-15.2 186.86-14.93 187.13-14.65 187.78-14.35 188.43-14.05 188.76-13.93 189.08-13.8 189.83-13.5L189.83-13.5Q194.38-11.9 195.68-10.38 196.98-8.85 196.98-6 196.98-3.15 194.33-0.75L194.33-0.75Q192.53 0.8 189.38 0.8L189.38 0.8Q187.23 0.8 184.58-0.25L184.58-0.25Q183.83-0.55 183.71-0.58 183.58-0.6 183.31-0.7 183.03-0.8 182.91-0.83 182.78-0.85 182.58-0.95 182.38-1.05 182.31-1.13 182.23-1.2 182.13-1.35L182.13-1.35Q181.98-1.6 181.98-2.15L181.98-2.15 181.98-6.5Q181.98-7.05 182.21-7.43 182.43-7.8 182.83-7.8 183.23-7.8 183.41-7.58 183.58-7.35 183.73-6.65 183.88-5.95 184.03-5.65L184.03-5.65Q185.88-1.05 189.23-1.05L189.23-1.05Q190.78-1.05 192.18-1.88 193.58-2.7 193.58-4.48 193.58-6.25 192.43-7.35 191.28-8.45 189.63-9.08 187.98-9.7 186.33-10.38 184.68-11.05 183.53-12.38 182.38-13.7 182.38-15.7L182.38-15.7Q182.38-18.5 184.63-20.2 186.88-21.9 189.58-21.9 192.28-21.9 193.68-21.48 195.08-21.05 195.36-20.7 195.63-20.35 195.63-20.05Z" opacity="1" transform="matrix(1,0,0,1,0,0)" fill="#ffffff" class="undefined-text-0" data-fill-palette-color="primary" id="text-0"></path></svg></g></svg></g><g transform="matrix(1,0,0,1,0,71.68526364734694)"><svg viewBox="0 0 316.416 29.625535613682093" height="29.625535613682093" width="316.416"><g transform="matrix(1,0,0,1,0,0)"><svg width="316.416" viewBox="3.0799999237060547 -41.939998626708984 545.969970703125 51.119998931884766" height="29.625535613682093" data-palette-color="#ffffff"><path d="M3.08 0L8.84-37.35 15.21-37.35 23.71-9.77 25.15-3.81 26.54-9.79 34.74-37.35 40.82-37.35 46.85 0 42.7 0 38.16-28.22 37.48-34.81 35.99-28.17 27.56-0.02 22.75-0.02 13.96-28.32 12.23-34.81 11.4-28.27 7.28 0 3.08 0ZM77.07-5.03L78.27-1.54Q73.22 0.49 67.11 0.49L67.11 0.49Q63.57 0.49 61.11-0.24L61.11-0.24Q57.18-1.37 55.88-4.88L55.88-4.88Q54.69-8.18 54.69-14.65L54.69-14.65 54.69-15.89Q54.69-23.63 57.91-26.76L57.91-26.76Q60.81-29.54 67.6-29.54L67.6-29.54Q74.22-29.54 76.63-26.27L76.63-26.27Q77.81-24.68 78.18-22.42 78.56-20.17 78.56-18.12L78.56-18.12Q78.56-14.92 78.42-13.16L78.42-13.16Q74.97-13.01 72.24-13.01L72.24-13.01Q72.24-13.01 68.31-13.01L68.31-13.01Q62.16-13.01 58.84-13.55L58.84-13.55Q58.84-7.93 60.25-5.71L60.25-5.71Q61.98-3 67.16-3 72.34-3 77.07-5.03L77.07-5.03ZM58.84-16.41L74.44-16.41 74.44-18.75Q74.44-22.58 72.95-24.22L72.95-24.22Q71.29-26.05 67.21-26.05L67.21-26.05Q62.33-26.05 60.54-23.93L60.54-23.93Q58.84-21.9 58.84-16.41L58.84-16.41ZM110.37-5.03L111.57-1.54Q106.51 0.49 100.41 0.49L100.41 0.49Q96.87 0.49 94.4-0.24L94.4-0.24Q90.47-1.37 89.18-4.88L89.18-4.88Q87.98-8.18 87.98-14.65L87.98-14.65 87.98-15.89Q87.98-23.63 91.21-26.76L91.21-26.76Q94.11-29.54 100.9-29.54L100.9-29.54Q107.51-29.54 109.93-26.27L109.93-26.27Q111.1-24.68 111.48-22.42 111.86-20.17 111.86-18.12L111.86-18.12Q111.86-14.92 111.71-13.16L111.71-13.16Q108.27-13.01 105.54-13.01L105.54-13.01Q105.54-13.01 101.61-13.01L101.61-13.01Q95.45-13.01 92.13-13.55L92.13-13.55Q92.13-7.93 93.55-5.71L93.55-5.71Q95.28-3 100.46-3 105.63-3 110.37-5.03L110.37-5.03ZM92.13-16.41L107.73-16.41 107.73-18.75Q107.73-22.58 106.25-24.22L106.25-24.22Q104.58-26.05 100.51-26.05L100.51-26.05Q95.62-26.05 93.84-23.93L93.84-23.93Q92.13-21.9 92.13-16.41L92.13-16.41ZM135.03-4.57L136.42-1.39Q132.44 0.49 129.07 0.49L129.07 0.49Q122.97 0.49 122.14-4.74L122.14-4.74Q121.94-5.98 121.94-8.35L121.94-8.35 121.94-25.66 118.43-25.66 118.43-28.66 121.94-29.05 122.58-35.69 125.97-35.69 125.97-29.05 134.44-29.05 134.44-25.66 125.97-25.66 125.97-8.42Q125.97-5.42 126.41-4.59L126.41-4.59Q127.21-3.08 129.63-3.08 132.05-3.08 135.03-4.57L135.03-4.57ZM155.75 0L155.75-37.35 159.9-37.35 159.9-20.48 177.55-20.48 177.55-37.35 181.68-37.35 181.68 0 177.55 0 177.55-16.94 159.9-16.94 159.9 0 155.75 0ZM214.44-5.03L215.63-1.54Q210.58 0.49 204.48 0.49L204.48 0.49Q200.94 0.49 198.47-0.24L198.47-0.24Q194.54-1.37 193.25-4.88L193.25-4.88Q192.05-8.18 192.05-14.65L192.05-14.65 192.05-15.89Q192.05-23.63 195.27-26.76L195.27-26.76Q198.18-29.54 204.97-29.54L204.97-29.54Q211.58-29.54 214-26.27L214-26.27Q215.17-24.68 215.55-22.42 215.93-20.17 215.93-18.12L215.93-18.12Q215.93-14.92 215.78-13.16L215.78-13.16Q212.34-13.01 209.6-13.01L209.6-13.01Q209.6-13.01 205.67-13.01L205.67-13.01Q199.52-13.01 196.2-13.55L196.2-13.55Q196.2-7.93 197.62-5.71L197.62-5.71Q199.35-3 204.53-3 209.7-3 214.44-5.03L214.44-5.03ZM196.2-16.41L211.8-16.41 211.8-18.75Q211.8-22.58 210.31-24.22L210.31-24.22Q208.65-26.05 204.57-26.05L204.57-26.05Q199.69-26.05 197.91-23.93L197.91-23.93Q196.2-21.9 196.2-16.41L196.2-16.41ZM236.6-25.51L236.6-25.51Q233.48-25.51 230.23-22.39L230.23-22.39 230.23 0 226.18 0 226.18-29.05 229.74-29.05 230.13-25.2Q231.28-26.98 232.61-27.98 233.94-28.98 234.8-29.2L234.8-29.2Q236.02-29.54 237.12-29.54 238.21-29.54 239.88-29.1L239.88-29.1 239.51-25.22Q238.26-25.51 236.6-25.51ZM268.58-5.03L269.78-1.54Q264.73 0.49 258.62 0.49L258.62 0.49Q255.08 0.49 252.62-0.24L252.62-0.24Q248.69-1.37 247.39-4.88L247.39-4.88Q246.2-8.18 246.2-14.65L246.2-14.65 246.2-15.89Q246.2-23.63 249.42-26.76L249.42-26.76Q252.32-29.54 259.11-29.54L259.11-29.54Q265.73-29.54 268.14-26.27L268.14-26.27Q269.32-24.68 269.69-22.42 270.07-20.17 270.07-18.12L270.07-18.12Q270.07-14.92 269.93-13.16L269.93-13.16Q266.48-13.01 263.75-13.01L263.75-13.01Q263.75-13.01 259.82-13.01L259.82-13.01Q253.67-13.01 250.35-13.55L250.35-13.55Q250.35-7.93 251.76-5.71L251.76-5.71Q253.5-3 258.67-3 263.85-3 268.58-5.03L268.58-5.03ZM250.35-16.41L265.95-16.41 265.95-18.75Q265.95-22.58 264.46-24.22L264.46-24.22Q262.8-26.05 258.72-26.05L258.72-26.05Q253.84-26.05 252.06-23.93L252.06-23.93Q250.35-21.9 250.35-16.41L250.35-16.41ZM279.05-5.81L279.84-5.86Q280.42-5.91 280.93-5.91L280.93-5.91 281.89-5.91Q282.62-5.91 283.05-5.7 283.47-5.49 283.47-5.05L283.47-5.05Q283.47-4.44 283.28-3.59L283.28-3.59 280.08 9.18 276.86 9.18 279.05-5.81ZM301.93-2.47L303.54-5.88Q309.08-2.95 314.38-2.95L314.38-2.95Q320.53-2.95 321.58-6.88L321.58-6.88Q321.92-8.18 321.92-9.86L321.92-9.86 321.92-10.82Q321.92-12.52 321.68-13.57 321.43-14.62 320.65-15.28L320.65-15.28Q319.38-16.38 314.65-17.11L314.65-17.11Q310.42-17.77 308.81-18.36 307.2-18.95 306.16-19.64 305.12-20.34 304.39-21.39L304.39-21.39Q302.88-23.58 302.88-27.47L302.88-27.47 302.88-27.71Q302.88-35.77 309.57-37.35L309.57-37.35Q311.69-37.84 314.38-37.84L314.38-37.84 314.69-37.84Q320.97-37.84 324.95-36.04L324.95-36.04 323.68-32.3Q318.87-34.38 314.82-34.38L314.82-34.38 314.6-34.38Q310.13-34.38 308.44-32.69L308.44-32.69Q307.03-31.27 307.03-27.78L307.03-27.78 307.03-27.69Q307.03-23.71 309.23-22.46L309.23-22.46Q310.71-21.66 314.56-21.04 318.41-20.43 320.29-20.01 322.16-19.58 323.48-18.6L323.48-18.6Q326.22-16.55 326.22-10.82L326.22-10.82 326.22-10.5Q326.22-1.73 319.16-0.05L319.16-0.05Q316.99 0.49 315.06 0.49 313.13 0.49 311.56 0.35 309.98 0.22 308.35-0.12L308.35-0.12Q304.51-0.9 301.93-2.47L301.93-2.47ZM356-5.03L357.2-1.54Q352.14 0.49 346.04 0.49L346.04 0.49Q342.5 0.49 340.03-0.24L340.03-0.24Q336.1-1.37 334.81-4.88L334.81-4.88Q333.61-8.18 333.61-14.65L333.61-14.65 333.61-15.89Q333.61-23.63 336.84-26.76L336.84-26.76Q339.74-29.54 346.53-29.54L346.53-29.54Q353.14-29.54 355.56-26.27L355.56-26.27Q356.73-24.68 357.11-22.42 357.49-20.17 357.49-18.12L357.49-18.12Q357.49-14.92 357.34-13.16L357.34-13.16Q353.9-13.01 351.17-13.01L351.17-13.01Q351.17-13.01 347.24-13.01L347.24-13.01Q341.08-13.01 337.76-13.55L337.76-13.55Q337.76-7.93 339.18-5.71L339.18-5.71Q340.91-3 346.09-3 351.26-3 356-5.03L356-5.03ZM337.76-16.41L353.36-16.41 353.36-18.75Q353.36-22.58 351.87-24.22L351.87-24.22Q350.21-26.05 346.14-26.05L346.14-26.05Q341.25-26.05 339.47-23.93L339.47-23.93Q337.76-21.9 337.76-16.41L337.76-16.41ZM368.67 0L368.62-41.5 372.65-41.85 372.65 0 368.67 0ZM385.34 0L385.29-41.5 389.32-41.85 389.32 0 385.34 0ZM418.37 0L418.37-33.74 408.41-33.74 408.41-37.35 432.82-37.35 432.82-33.74 422.52-33.74 422.52 0 418.37 0ZM452.28-25.76L452.28-25.76Q447.42-25.76 442.63-22.95L442.63-22.95 442.63 0 438.58 0 438.58-41.55 442.54-41.94 442.54-26.05Q445.05-28.2 449.08-29.15L449.08-29.15Q450.69-29.54 452.89-29.54 455.08-29.54 456.74-29.04 458.4-28.54 459.38-27.44L459.38-27.44Q461.14-25.46 461.14-20.24L461.14-20.24 461.14 0 457.04 0 457.04-19.51Q457.04-23.02 456.35-24.04 455.67-25.05 454.73-25.4 453.79-25.76 452.28-25.76ZM493.41-5.03L494.61-1.54Q489.55 0.49 483.45 0.49L483.45 0.49Q479.91 0.49 477.45-0.24L477.45-0.24Q473.51-1.37 472.22-4.88L472.22-4.88Q471.02-8.18 471.02-14.65L471.02-14.65 471.02-15.89Q471.02-23.63 474.25-26.76L474.25-26.76Q477.15-29.54 483.94-29.54L483.94-29.54Q490.56-29.54 492.97-26.27L492.97-26.27Q494.14-24.68 494.52-22.42 494.9-20.17 494.9-18.12L494.9-18.12Q494.9-14.92 494.75-13.16L494.75-13.16Q491.31-13.01 488.58-13.01L488.58-13.01Q488.58-13.01 484.65-13.01L484.65-13.01Q478.5-13.01 475.17-13.55L475.17-13.55Q475.17-7.93 476.59-5.71L476.59-5.71Q478.32-3 483.5-3 488.68-3 493.41-5.03L493.41-5.03ZM475.17-16.41L490.78-16.41 490.78-18.75Q490.78-22.58 489.29-24.22L489.29-24.22Q487.63-26.05 483.55-26.05L483.55-26.05Q478.67-26.05 476.88-23.93L476.88-23.93Q475.17-21.9 475.17-16.41L475.17-16.41ZM515.58-25.51L515.58-25.51Q512.45-25.51 509.21-22.39L509.21-22.39 509.21 0 505.15 0 505.15-29.05 508.72-29.05 509.11-25.2Q510.26-26.98 511.59-27.98 512.92-28.98 513.77-29.2L513.77-29.2Q514.99-29.54 516.09-29.54 517.19-29.54 518.85-29.1L518.85-29.1 518.48-25.22Q517.24-25.51 515.58-25.51ZM547.56-5.03L548.75-1.54Q543.7 0.49 537.6 0.49L537.6 0.49Q534.06 0.49 531.59-0.24L531.59-0.24Q527.66-1.37 526.37-4.88L526.37-4.88Q525.17-8.18 525.17-14.65L525.17-14.65 525.17-15.89Q525.17-23.63 528.39-26.76L528.39-26.76Q531.3-29.54 538.08-29.54L538.08-29.54Q544.7-29.54 547.12-26.27L547.12-26.27Q548.29-24.68 548.67-22.42 549.05-20.17 549.05-18.12L549.05-18.12Q549.05-14.92 548.9-13.16L548.9-13.16Q545.46-13.01 542.72-13.01L542.72-13.01Q542.72-13.01 538.79-13.01L538.79-13.01Q532.64-13.01 529.32-13.55L529.32-13.55Q529.32-7.93 530.74-5.71L530.74-5.71Q532.47-3 537.65-3 542.82-3 547.56-5.03L547.56-5.03ZM529.32-16.41L544.92-16.41 544.92-18.75Q544.92-22.58 543.43-24.22L543.43-24.22Q541.77-26.05 537.69-26.05L537.69-26.05Q532.81-26.05 531.03-23.93L531.03-23.93Q529.32-21.9 529.32-16.41L529.32-16.41Z" opacity="1" transform="matrix(1,0,0,1,0,0)" fill="#ffffff" class="undefined-text-1" data-fill-palette-color="secondary" id="text-1"></path></svg></g></svg></g></svg></g></svg></g><g></g></svg></g></svg></g></svg></g><g mask="url(#47753574-58fa-401b-bae2-7f11ca04f136)"><g transform="matrix(5.832243420458675, 0, 0, 5.832243420458675, 35.46329427339114, 0.9999999999999858)"><svg xmlns="http://www.w3.org/2000/svg" data-name="Layer 1" viewBox="4.170000076293945 10.998065948486328 55.65498352050781 42.04214096069336" x="0" y="0" height="42.04214096069336" width="55.65498352050781" class="icon-none" data-fill-palette-color="accent" id="none"><path d="M59.43 18.81A2 2 0 0 0 57.82 18H45.54a10 10 0 0 0-19.08 0H12.81l-1.27-4.77A3 3 0 0 0 8.64 11H4.17v2H8.64a1 1 0 0 1 1 0.74L17 41.52A2 2 0 0 0 18.94 43H51.43a2 2 0 0 0 1.92-1.42l6.39-21A2 2 0 0 0 59.43 18.81ZM36 13a8 8 0 1 1-8 8A8 8 0 0 1 36 13ZM51.43 41H18.94l-5.6-21H26.05c0 0.33-0.05 0.66-0.05 1a10 10 0 0 0 20 0c0-0.34 0-0.67 0-1H57.83Z" fill="#ffffff" data-fill-palette-color="accent"></path><path d="M53.17 47A3 3 0 0 0 51 48a28.64 28.64 0 0 0-14.81-4 28.63 28.63 0 0 0-14.8 4 3 3 0 1 0 0.8 2c0-0.06 0-0.11 0-0.17a27.56 27.56 0 0 1 28 0c0 0.06 0 0.11 0 0.17a3 3 0 1 0 3-3Zm-34 4a1 1 0 1 1 1-1A1 1 0 0 1 19.17 51Zm34 0a1 1 0 1 1 1-1A1 1 0 0 1 53.17 51Z" fill="#ffffff" data-fill-palette-color="accent"></path><rect x="37.17" y="37" width="13" height="2" fill="#ffffff" data-fill-palette-color="accent"></rect><rect x="33.17" y="37" width="2" height="2" fill="#ffffff" data-fill-palette-color="accent"></rect><polygon points="35 19.29 35 26 37 26 37 19.29 40.39 21.93 41.61 20.35 36 15.98 30.39 20.35 31.61 21.93 35 19.29" fill="#ffffff" data-fill-palette-color="accent"></polygon></svg></g></g></svg></g><defs><mask id="47753574-58fa-401b-bae2-7f11ca04f136"><rect width="640" height="400" fill="white"></rect><rect width="348.05760000000004" height="119.56785716796782" fill="black" x="145.97119999999998" y="140.2160714160161" id="transform-me" transform="matrix(1,0,0,1,-122.24000000000001,-76.4)"></rect></mask></defs></svg><rect width="395.52" height="247.2" fill="none" stroke="none" visibility="hidden"></rect></g></svg></g></svg>